HIERARCHY
ROOT Hips
{
	OFFSET 0.000000 0.000000 0.000000 
	CHANNELS 6 Xposition Yposition Zposition Zrotation Yrotation Xrotation
	JOINT LeftUpLeg
	{
		OFFSET 1.363060 -1.794630 0.839290 
		CHANNELS 3 Zrotation Yrotation Xrotation
		JOINT LeftLeg
		{
			OFFSET 2.448110 -6.726130 0.000000 
			CHANNELS 3 Zrotation Yrotation Xrotation
			JOINT LeftFoot
			{
				OFFSET 2.562200 -7.039590 0.000000 
				CHANNELS 3 Zrotation Yrotation Xrotation
				JOINT LeftToeBase
				{
					OFFSET 0.157640 -0.433110 2.322550 
					CHANNELS 3 Zrotation Yrotation Xrotation
					End Site
					{
						OFFSET 0.000000 0.000000 0.000000 
					}
				}
			}
		}
	}
	JOINT RightUpLeg
	{
		OFFSET -1.305520 -1.794630 0.839290 
		CHANNELS 3 Zrotation Yrotation Xrotation
		JOINT RightLeg
		{
			OFFSET -2.542530 -6.985550 0.000000 
			CHANNELS 3 Zrotation Yrotation Xrotation
			JOINT RightFoot
			{
				OFFSET -2.568260 -7.056230 0.000000 
				CHANNELS 3 Zrotation Yrotation Xrotation
				JOINT RightToeBase
				{
					OFFSET -0.164730 -0.452590 2.363150 
					CHANNELS 3 Zrotation Yrotation Xrotation
					End Site
					{
						OFFSET 0.000000 0.000000 0.000000 
					}
				}
			}
		}
	}
	JOINT Spine
	{
		OFFSET 0.028270 2.035590 -0.193380 
		CHANNELS 3 Zrotation Yrotation Xrotation
		JOINT Spine1
		{
			OFFSET 0.056720 2.048850 -0.042750 
			CHANNELS 3 Zrotation Yrotation Xrotation
			JOINT Neck1
			{
				OFFSET -0.054170 1.746240 0.172020 
				CHANNELS 3 Zrotation Yrotation Xrotation
				JOINT Head
				{
					OFFSET 0.104070 1.761360 -0.123970 
					CHANNELS 3 Zrotation Yrotation Xrotation
					End Site
					{
						OFFSET 0.000000 0.000000 0.000000 
					}
				}
			}
			JOINT LeftArm
			{
				OFFSET 3.362410 1.200890 -0.311210 
				CHANNELS 3 Zrotation Yrotation Xrotation
				JOINT LeftForeArm
				{
					OFFSET 4.983000 -0.000000 -0.000000 
					CHANNELS 3 Zrotation Yrotation Xrotation
					JOINT LeftHand
					{
						OFFSET 3.483560 -0.000000 -0.000000 
						CHANNELS 3 Zrotation Yrotation Xrotation
						JOINT LeftHandIndex1
						{
							OFFSET 0.715260 -0.000000 -0.000000 
							CHANNELS 3 Zrotation Yrotation Xrotation
							End Site
							{
								OFFSET 0.000000 0.000000 0.000000 
							}
						}
					}
				}
			}
			JOINT RightArm
			{
				OFFSET -3.136600 1.374050 -0.404650 
				CHANNELS 3 Zrotation Yrotation Xrotation
				JOINT RightForeArm
				{
					OFFSET -5.241900 -0.000000 -0.000000 
					CHANNELS 3 Zrotation Yrotation Xrotation
					JOINT RightHand
					{
						OFFSET -3.444170 -0.000000 -0.000000 
						CHANNELS 3 Zrotation Yrotation Xrotation
						JOINT RightHandIndex1
						{
							OFFSET -0.622530 -0.000000 -0.000000 
							CHANNELS 3 Zrotation Yrotation Xrotation
							End Site
							{
								OFFSET 0.000000 0.000000 0.000000 
							}
						}
					}
				}
			}
		}
	}
}
MOTION
Frames: 13
Frame Time: 0.041667
6.475369 29.899477 31.521773 22.136493 79.980742 23.645752 -19.460358 14.770001 -32.229619 4.309613 14.339634 41.598139 178.312589 -31.179033 -15.623812 0.000800 0.184200 0.506100 23.699365 15.917738 -8.930558 -4.078741 -13.866621 41.241172 0.045068 -15.717881 -31.364635 -0.641400 -5.123500 14.261200 1.875058 -4.122523 -4.957613 3.071808 -2.286982 4.656782 -4.984496 -7.614095 17.839761 -8.800600 -3.021900 10.383100 -88.420301 -0.362083 29.042716 20.146608 -23.600776 -5.139277 -1.368834 0.087473 -18.187080 -7.125000 0.000000 0.000000 77.643121 0.874865 12.534457 -15.494748 19.834409 -3.943758 1.966465 -0.517341 7.583849 7.125000 0.000000 0.000000 
6.486767 29.894411 31.524421 21.658710 79.731934 23.001254 -19.423143 15.010746 -32.155486 4.363732 14.374422 41.760729 178.328378 -31.186156 -15.733103 0.001000 0.200400 0.550700 23.718168 15.833022 -8.742961 -4.086745 -13.867191 41.260632 0.028127 -15.533266 -31.222370 -0.643900 -5.133400 14.289400 1.855206 -4.013825 -4.942141 3.167345 -2.222150 4.568056 -4.704500 -7.771458 17.424503 -8.377700 -3.202100 10.032700 -88.443701 -0.181319 28.679721 19.573406 -22.928246 -4.860809 -1.365237 0.104186 -17.673911 -7.125000 0.000000 0.000000 77.458790 0.917663 12.416307 -15.345210 19.667129 -3.888032 1.972656 -0.492499 8.076855 7.125000 0.000000 0.000000 
6.495171 29.889576 31.526378 21.364898 79.538324 22.562331 -19.341726 14.989090 -31.981435 4.408591 14.411371 41.911205 178.333729 -31.278324 -15.837660 0.001200 0.220200 0.605000 23.702291 15.653897 -8.627491 -4.097396 -13.867328 41.286278 -0.005427 -15.275334 -31.084440 -0.650000 -5.157200 14.357600 1.846428 -3.925159 -4.942361 3.092093 -2.177869 4.473010 -4.934945 -7.800531 17.786225 -8.674600 -3.118800 10.187000 -88.334467 0.185767 28.794848 19.134556 -22.431134 -4.665212 -1.374248 0.122778 -17.559730 -7.125000 0.000000 0.000000 77.357149 1.002539 12.019924 -15.294698 19.562783 -3.832728 1.969886 -0.460098 8.934086 7.125000 0.000000 0.000000 
6.500927 29.889461 31.527875 21.165806 79.415670 22.324812 -19.172768 14.506597 -31.713275 4.440128 14.450843 42.052217 178.271803 -31.591085 -15.707438 0.000200 0.080500 0.221100 23.652909 15.447467 -8.691237 -4.106879 -13.872642 41.313674 -0.055761 -14.974647 -30.995495 -0.662100 -5.204000 14.491500 1.831718 -3.856199 -4.949274 3.062796 -2.125519 4.321322 -4.880446 -7.925765 17.655148 -8.569600 -3.192600 9.974900 -88.192588 0.585828 28.983917 18.755930 -22.000343 -4.510974 -1.412047 0.115641 -17.656326 -7.125000 0.000000 0.000000 77.342527 1.032374 11.896403 -15.244445 19.511610 -3.826934 1.980562 -0.436605 9.079225 7.125000 0.000000 0.000000 
6.507375 29.891073 31.528681 20.914390 79.268901 22.037258 -18.968609 13.941897 -31.400227 4.473092 14.494903 42.211607 178.167429 -31.948511 -15.340228 0.000900 -0.189900 -0.521800 23.620075 15.320541 -8.717023 -4.116066 -13.879477 41.343037 -0.080101 -14.791816 -30.904852 -0.654600 -5.175000 14.408400 1.821492 -3.799170 -4.943240 3.064388 -2.085954 4.260251 -4.809066 -7.999495 17.479699 -8.426500 -3.259700 9.752400 -88.134983 0.847055 28.836829 18.376337 -21.575660 -4.361867 -1.459515 0.086721 -17.585769 -7.125000 0.000000 0.000000 77.241336 1.069306 12.283778 -15.188380 19.477011 -3.845940 1.963481 -0.563094 8.712593 7.125000 0.000000 0.000000 
6.515204 29.889000 31.528681 20.962950 79.023414 21.952358 -18.875021 13.718698 -31.136185 4.522113 14.545546 42.415974 178.132693 -31.993632 -15.079527 0.003100 -0.356900 -0.980500 23.524851 15.201997 -8.622746 -4.128363 -13.885679 41.379673 -0.034826 -14.812829 -30.663110 -0.592600 -4.928600 13.704900 1.801223 -3.716724 -4.922700 3.066468 -2.043183 4.243264 -4.739214 -8.044207 17.338579 -8.299700 -3.306600 9.570800 -88.108185 1.060337 28.356283 17.987170 -21.131199 -4.204685 -1.476449 0.111674 -17.221703 -7.125000 0.000000 0.000000 77.107350 1.107106 12.699862 -15.201123 19.519380 -3.891522 1.939557 -0.679474 8.846511 7.125000 0.000000 0.000000 
6.525220 29.887849 31.526493 20.942204 78.721507 21.804416 -18.781636 13.583740 -30.909703 4.586867 14.605997 42.659416 178.173593 -31.891080 -15.169444 0.003100 -0.359800 -0.988500 23.386814 14.990604 -8.591707 -4.142408 -13.892548 41.418316 -0.025143 -14.651344 -30.396932 -0.559100 -4.789400 13.309000 1.777000 -3.612642 -4.904262 3.022647 -1.987211 4.214006 -4.707055 -8.075115 17.229610 -8.230700 -3.332300 9.406100 -88.074663 1.285176 27.790675 17.630734 -20.718818 -4.063873 -1.481933 0.164121 -16.756513 -7.125000 0.000000 0.000000 77.120477 1.109101 13.063667 -15.385419 19.732614 -3.944872 1.956557 -0.618062 8.347743 7.125000 0.000000 0.000000 
6.537539 29.890382 31.523615 20.557868 78.462556 21.392917 -18.592785 13.237816 -30.691511 4.656915 14.675006 42.941276 178.104564 -32.007754 -14.772355 0.019100 -0.891900 -2.451400 23.309148 14.833929 -8.642274 -4.153155 -13.902189 41.451390 -0.047309 -14.410943 -30.219592 -0.555400 -4.773900 13.264900 1.743511 -3.473623 -4.890076 3.014843 -1.897343 4.146687 -4.393327 -8.291617 16.772461 -7.772900 -3.538300 9.021700 -88.007590 1.509841 27.445877 17.350803 -20.375979 -3.950453 -1.498075 0.167975 -16.387327 -7.125000 0.000000 0.000000 77.171889 1.073942 13.400802 -15.635588 20.017189 -3.985585 1.973327 -0.502168 7.486517 7.125000 0.000000 0.000000 
6.548591 29.890497 31.522694 20.178421 78.223816 21.017060 -18.431697 12.992891 -30.601438 4.735543 14.756221 43.277119 177.968461 -32.060858 -13.825377 0.072300 -1.735100 -4.774200 23.257634 14.761301 -8.672940 -4.160670 -13.906935 41.471593 -0.021734 -14.362103 -29.998909 -0.514800 -4.598800 12.767600 1.723243 -3.342274 -4.881235 2.860084 -1.834108 4.208721 -4.574805 -8.362411 17.150034 -8.017400 -3.492800 9.233000 -87.866881 1.655598 27.147713 17.086746 -20.070013 -3.844925 -1.512860 0.156537 -15.963056 -7.125000 0.000000 0.000000 77.223055 1.071107 13.732223 -15.846352 20.231031 -4.005078 1.951920 -0.514272 7.375673 7.125000 0.000000 0.000000 
6.556766 29.888655 31.522349 19.917675 78.018598 20.731400 -18.297737 12.904942 -30.613003 4.836386 14.851260 43.662172 177.968135 -31.858589 -13.519187 0.092800 -1.965000 -5.408800 23.198748 14.609268 -8.709117 -4.165608 -13.908726 41.481107 0.018998 -14.364405 -29.752308 -0.451100 -4.308900 11.947300 1.698573 -3.214875 -4.863894 2.777989 -1.761548 4.197126 -4.523395 -8.485836 17.008771 -7.936700 -3.563000 9.029800 -87.730086 1.729800 26.825806 16.841165 -19.782923 -3.753873 -1.533964 0.154707 -15.631740 -7.125000 0.000000 0.000000 77.290412 1.064828 14.117332 -15.991836 20.409987 -4.052753 1.936163 -0.562972 6.997709 7.125000 0.000000 0.000000 
6.565055 29.888540 31.520046 19.686496 77.848333 20.454527 -18.149810 12.763221 -30.619985 4.957181 14.963757 44.105154 178.019576 -31.653575 -13.569930 0.092300 -1.959400 -5.393400 23.166117 14.510785 -8.684580 -4.168243 -13.906679 41.481872 0.033448 -14.319838 -29.603256 -0.413800 -4.129300 11.440900 1.675508 -3.119650 -4.843454 2.662029 -1.707958 4.200004 -4.494889 -8.534963 16.878895 -7.899500 -3.589900 8.851000 -87.590836 1.811342 26.596204 16.668293 -19.578009 -3.688807 -1.544140 0.158968 -15.550140 -7.125000 0.000000 0.000000 77.332960 1.175396 14.479370 -16.179313 20.664627 -4.156364 1.965288 -0.491481 6.172376 7.125000 0.000000 0.000000 
6.576222 29.886467 31.517283 19.438733 77.680444 20.135303 -18.032496 12.793458 -30.708389 5.098712 15.089904 44.627087 178.036402 -31.350073 -13.242181 0.127900 -2.305600 -6.351100 23.150290 14.472573 -8.585016 -4.171426 -13.901797 41.480646 -0.000120 -14.083877 -29.495413 -0.422200 -4.170600 11.557100 1.665537 -3.069452 -4.826587 2.634595 -1.679767 4.200149 -4.471869 -8.519124 16.768895 -7.854900 -3.590600 8.705700 -87.571731 2.002499 26.391386 16.604094 -19.509299 -3.664848 -1.542577 0.167890 -15.655173 -7.125000 0.000000 0.000000 77.271928 1.242432 15.116115 -16.475327 20.989867 -4.241649 1.977935 -0.402553 5.404545 7.125000 0.000000 0.000000 
6.587505 29.884165 31.514059 19.195052 77.545130 19.800370 -17.924020 12.879165 -30.856330 5.258442 15.229696 45.215531 178.051020 -30.957984 -12.771329 0.183200 -2.756600 -7.601800 23.139740 14.375075 -8.483209 -4.173750 -13.893461 41.473097 -0.042835 -13.812404 -29.398225 -0.436000 -4.237000 11.744500 1.665073 -3.052504 -4.814126 2.661121 -1.667265 4.174751 -4.442371 -8.482392 16.656775 -7.778900 -3.588500 8.557700 -87.607875 2.142777 26.092907 16.545351 -19.447030 -3.643899 -1.538366 0.187689 -15.646421 -7.125000 0.000000 0.000000 77.178939 1.214613 15.891776 -16.777219 21.288784 -4.290269 1.966156 -0.364035 4.831165 7.125000 0.000000 0.000000 
